<?xml version="1.0"?>
<svg xmlns="http://www.w3.org/2000/svg" xmlns:xlink="http://www.w3.org/1999/xlink" version="1.1" id="Capa_1" x="0px" y="0px" viewBox="0 0 511.989 511.989" style="enable-background:new 0 0 511.989 511.989;" xml:space="preserve" width="512px" height="512px" class=""><g><g>
	<g>
		<path d="M476.385,201.192c-2.372-87.617-69.743-159.013-155.64-167.707c2.355-3.439,3.737-7.595,3.737-12.078    C324.483,9.584,314.898,0,303.076,0c-11.822,0-21.407,9.584-21.407,21.407c0,4.482,1.382,8.639,3.737,12.078    c-85.897,8.695-153.268,80.09-155.64,167.707H99.141v30h79.966c0.892,24.545-2.636,41.402-5.677,45.833    c-12.144,17.697-18.708,34.237-22.241,47.519l87.013,101.277l72.342-41.94c32.427-18.799,59.166-46.067,77.326-78.858    l40.888-73.831h78.254v-30H476.385z M315.863,275.769c-6.072,10.353-17.299,16.785-29.301,16.785    c-18.729,0-33.967-15.237-33.967-33.967v-27.395h89.408L315.863,275.769z" data-original="#000000" class="active-path" data-old_color="#ffffff" fill="#ffffff"/>
	</g>
</g><g>
	<g>
		<rect x="32.666" y="31.626" width="58.8" height="30" data-original="#000000" class="active-path" data-old_color="#ffffff" fill="#ffffff"/>
	</g>
</g><g>
	<g>
		<rect x="32.666" y="151.63" width="58.8" height="30" data-original="#000000" class="active-path" data-old_color="#ffffff" fill="#ffffff"/>
	</g>
</g><g>
	<g>
		<rect x="4.977" y="91.63" width="86.49" height="30" data-original="#000000" class="active-path" data-old_color="#ffffff" fill="#ffffff"/>
	</g>
</g><g>
	<g>
		
			<rect x="108.381" y="338.79" transform="matrix(0.7585 -0.6517 0.6517 0.7585 -240.4563 197.5865)" width="75.94" height="168.843" data-original="#000000" class="active-path" data-old_color="#ffffff" fill="#ffffff"/>
	</g>
</g></g> </svg>
